<svg width="105" height="150" viewBox="0 0 105 150" fill="none" xmlns="http://www.w3.org/2000/svg">
<path fill-rule="evenodd" clip-rule="evenodd" d="M94.5934 91.5981C94.5934 99.2897 94.6448 106.355 94.5186 113.421C94.5046 114.196 93.6541 115.243 92.9065 115.673C75.5327 125.776 58.1261 135.808 40.7102 145.841C40.2476 146.107 39.6682 146.164 38.6401 146.463C38.528 145.196 38.3551 144.159 38.3551 143.121C38.3411 111.921 38.3831 80.7243 38.285 49.5234C38.2756 46.9907 39.2009 45.7009 41.285 44.5047C57.3644 35.3178 73.3878 26.028 89.4298 16.7757C92.6027 14.9439 92.9999 13.6449 90.3738 11.1729C88.7242 9.62149 86.4859 8.35047 84.299 7.79439C79.1074 6.48131 73.8878 6.46262 68.6355 8.17757C49.7663 14.3505 30.8597 20.4019 11.9205 26.3458C9.43451 27.1262 8.59806 28.1822 8.60741 30.8131C8.6962 60.3178 8.65414 89.8178 8.65881 119.322C8.65881 120.299 8.78965 121.276 8.89246 122.752C13.5373 121.252 17.8504 119.855 22.5934 118.322C22.3831 119.355 22.4112 120.378 22.1168 120.481C17.1915 122.234 12.2289 123.869 6.77563 125.696C6.77563 92.0748 6.77563 59.3458 6.77563 26.2009C14.7196 23.5748 22.9158 20.8411 31.1308 18.1495C43.4579 14.1028 55.8177 10.1636 68.1074 6.02804C74.2756 3.95327 80.3831 4.32243 86.4252 6.11682C92.0513 7.78505 94.5934 11.6075 94.5981 17.514C94.6027 23.2804 94.4532 29.0514 94.6635 34.8037C94.7663 37.528 93.8551 39.0234 91.4719 40.3178C81.1541 45.9252 70.9999 51.8364 60.6541 57.3925C57.9626 58.8364 57.014 60.5 57.2009 63.4766C57.4626 67.6262 57.2663 71.8037 57.2663 76.7804C69.8457 69.5327 81.9018 62.5888 94.5654 55.2944C94.5654 61.8411 94.6682 67.8598 94.4485 73.8692C94.4205 74.7009 92.9392 75.6822 91.9392 76.2523C81.327 82.2617 70.7055 88.2523 60.0093 94.1075C57.9485 95.2336 57.1121 96.4953 57.2196 98.8645C57.4158 103.336 57.2756 107.827 57.2756 113.079C69.9252 105.804 81.9859 98.8598 94.5934 91.5981Z" fill="#E50914"/>
<path fill-rule="evenodd" clip-rule="evenodd" d="M78.2803 13.4065C77.1401 14.1916 76.0467 15.0654 74.8504 15.757C60.7897 23.8925 46.7429 32.0561 32.6074 40.0561C30.1588 41.4393 29.1635 42.9252 29.1775 45.8318C29.299 76.1075 29.2616 106.383 29.2616 136.654C29.2616 137.636 29.1448 138.621 29.0841 139.603C28.7056 139.696 28.3271 139.79 27.9486 139.883C27.6261 138.687 27.0233 137.486 27.0233 136.29C26.9672 114.374 26.9906 92.458 26.9906 70.5421C26.9906 61.729 27.056 52.9159 26.9345 44.1075C26.9018 41.8224 27.542 40.472 29.6168 39.2944C44.3271 30.9299 58.9486 22.4112 73.6215 13.9766C74.8878 13.2477 76.2897 12.757 77.6261 12.1542C77.8364 12.5701 78.0607 12.986 78.2803 13.4065Z" fill="#E50914"/>
</svg>
